<svg xmlns="http://www.w3.org/2000/svg" xmlns:xlink="http://www.w3.org/1999/xlink" viewBox="0 0 477 385.75"><defs><style>.a,.c{fill:none;stroke:#d92a21;stroke-miterlimit:10;}.b{clip-path:url(#a);}.c{stroke-width:6px;}</style><clipPath id="a"><path class="a" d="M475,383H2V73S120,2,239,2,475,74,475,74Z"/></clipPath></defs><title>grille</title><g class="b"><line class="a" x1="-36.9" y1="6.11" x2="502.94" y2="541.26"/><line class="a" x1="-39.88" y1="11.12" x2="499.96" y2="546.27"/><line class="a" x1="-42.86" y1="16.14" x2="496.98" y2="551.28"/><line class="a" x1="-45.84" y1="21.15" x2="494.01" y2="556.3"/><line class="a" x1="-48.81" y1="26.16" x2="491.03" y2="561.31"/><line class="a" x1="-51.79" y1="31.17" x2="488.05" y2="566.32"/><line class="a" x1="-54.77" y1="36.19" x2="485.07" y2="571.34"/><line class="a" x1="-57.75" y1="41.2" x2="482.09" y2="576.35"/><line class="a" x1="-60.73" y1="46.21" x2="479.11" y2="581.36"/><line class="a" x1="-63.7" y1="51.23" x2="476.14" y2="586.38"/><line class="a" x1="-66.68" y1="56.24" x2="473.16" y2="591.39"/><line class="a" x1="-69.66" y1="61.25" x2="470.18" y2="596.4"/><line class="a" x1="-72.64" y1="66.27" x2="467.2" y2="601.41"/><line class="a" x1="-75.62" y1="71.28" x2="464.22" y2="606.43"/><line class="a" x1="-78.6" y1="76.29" x2="461.25" y2="611.44"/><line class="a" x1="-81.57" y1="81.3" x2="458.27" y2="616.45"/><line class="a" x1="-84.55" y1="86.32" x2="455.29" y2="621.47"/><line class="a" x1="-87.53" y1="91.33" x2="452.31" y2="626.48"/><line class="a" x1="-90.51" y1="96.34" x2="449.33" y2="631.49"/><line class="a" x1="-93.49" y1="101.36" x2="446.35" y2="636.51"/><line class="a" x1="-96.46" y1="106.37" x2="443.38" y2="641.52"/><line class="a" x1="-99.44" y1="111.38" x2="440.4" y2="646.53"/><line class="a" x1="-102.42" y1="116.4" x2="437.42" y2="651.55"/><line class="a" x1="-105.4" y1="121.41" x2="434.44" y2="656.56"/><line class="a" x1="-108.38" y1="126.42" x2="431.46" y2="661.57"/><line class="a" x1="-111.35" y1="131.44" x2="428.49" y2="666.58"/><line class="a" x1="-114.33" y1="136.45" x2="425.51" y2="671.6"/><line class="a" x1="-117.31" y1="141.46" x2="422.53" y2="676.61"/><line class="a" x1="-120.29" y1="146.47" x2="419.55" y2="681.62"/><line class="a" x1="-123.27" y1="151.49" x2="416.57" y2="686.64"/><line class="a" x1="-126.25" y1="156.5" x2="413.6" y2="691.65"/><line class="a" x1="-129.22" y1="161.51" x2="410.62" y2="696.66"/><line class="a" x1="-132.2" y1="166.53" x2="407.64" y2="701.68"/><line class="a" x1="-135.18" y1="171.54" x2="404.66" y2="706.69"/><line class="a" x1="-138.16" y1="176.55" x2="401.68" y2="711.7"/><line class="a" x1="-141.14" y1="181.57" x2="398.7" y2="716.71"/><line class="a" x1="-144.11" y1="186.58" x2="395.73" y2="721.73"/><line class="a" x1="-147.09" y1="191.59" x2="392.75" y2="726.74"/><line class="a" x1="-150.07" y1="196.6" x2="389.77" y2="731.75"/><line class="a" x1="-154.17" y1="201.72" x2="385.67" y2="736.87"/><line class="a" x1="-158.27" y1="206.85" x2="381.57" y2="742"/><line class="a" x1="-162.37" y1="211.97" x2="377.47" y2="747.12"/><line class="a" x1="-166.47" y1="217.1" x2="373.37" y2="752.25"/><line class="a" x1="118.91" y1="-151.07" x2="658.76" y2="384.08"/><line class="a" x1="115.94" y1="-146.06" x2="655.78" y2="389.09"/><line class="a" x1="112.96" y1="-141.05" x2="652.8" y2="394.1"/><line class="a" x1="109.98" y1="-136.03" x2="649.82" y2="399.12"/><line class="a" x1="107" y1="-131.02" x2="646.84" y2="404.13"/><line class="a" x1="104.02" y1="-126.01" x2="643.86" y2="409.14"/><line class="a" x1="101.05" y1="-120.99" x2="640.89" y2="414.16"/><line class="a" x1="98.07" y1="-115.98" x2="637.91" y2="419.17"/><line class="a" x1="95.09" y1="-110.97" x2="634.93" y2="424.18"/><line class="a" x1="92.11" y1="-105.96" x2="631.95" y2="429.19"/><line class="a" x1="89.13" y1="-100.94" x2="628.97" y2="434.21"/><line class="a" x1="86.15" y1="-95.93" x2="626" y2="439.22"/><line class="a" x1="83.18" y1="-90.92" x2="623.02" y2="444.23"/><line class="a" x1="80.2" y1="-85.9" x2="620.04" y2="449.25"/><line class="a" x1="77.22" y1="-80.89" x2="617.06" y2="454.26"/><line class="a" x1="74.24" y1="-75.88" x2="614.08" y2="459.27"/><line class="a" x1="71.26" y1="-70.86" x2="611.1" y2="464.29"/><line class="a" x1="68.29" y1="-65.85" x2="608.13" y2="469.3"/><line class="a" x1="65.31" y1="-60.84" x2="605.15" y2="474.31"/><line class="a" x1="62.33" y1="-55.82" x2="602.17" y2="479.32"/><line class="a" x1="59.35" y1="-50.81" x2="599.19" y2="484.34"/><line class="a" x1="56.37" y1="-45.8" x2="596.21" y2="489.35"/><line class="a" x1="53.4" y1="-40.79" x2="593.24" y2="494.36"/><line class="a" x1="50.42" y1="-35.77" x2="590.26" y2="499.38"/><line class="a" x1="47.44" y1="-30.76" x2="587.28" y2="504.39"/><line class="a" x1="44.46" y1="-25.75" x2="584.3" y2="509.4"/><line class="a" x1="41.48" y1="-20.73" x2="581.32" y2="514.42"/><line class="a" x1="38.5" y1="-15.72" x2="578.35" y2="519.43"/><line class="a" x1="35.53" y1="-10.71" x2="575.37" y2="524.44"/><line class="a" x1="32.55" y1="-5.69" x2="572.39" y2="529.46"/><line class="a" x1="29.57" y1="-0.68" x2="569.41" y2="534.47"/><line class="a" x1="26.59" y1="4.33" x2="566.43" y2="539.48"/><line class="a" x1="23.61" y1="9.34" x2="563.45" y2="544.49"/><line class="a" x1="20.64" y1="14.36" x2="560.48" y2="549.51"/><line class="a" x1="17.66" y1="19.37" x2="557.5" y2="554.52"/><line class="a" x1="14.68" y1="24.38" x2="554.52" y2="559.53"/><line class="a" x1="11.7" y1="29.4" x2="551.54" y2="564.55"/><line class="a" x1="8.72" y1="34.41" x2="548.56" y2="569.56"/><line class="a" x1="5.74" y1="39.42" x2="545.59" y2="574.57"/><line class="a" x1="274.73" y1="-308.25" x2="814.57" y2="226.9"/><line class="a" x1="271.75" y1="-303.24" x2="811.59" y2="231.91"/><line class="a" x1="268.77" y1="-298.23" x2="808.61" y2="236.92"/><line class="a" x1="265.8" y1="-293.21" x2="805.64" y2="241.93"/><line class="a" x1="262.82" y1="-288.2" x2="802.66" y2="246.95"/><line class="a" x1="259.84" y1="-283.19" x2="799.68" y2="251.96"/><line class="a" x1="256.86" y1="-278.18" x2="796.7" y2="256.97"/><line class="a" x1="253.88" y1="-273.16" x2="793.72" y2="261.99"/><line class="a" x1="250.9" y1="-268.15" x2="790.75" y2="267"/><line class="a" x1="247.93" y1="-263.14" x2="787.77" y2="272.01"/><line class="a" x1="244.95" y1="-258.12" x2="784.79" y2="277.03"/><line class="a" x1="241.97" y1="-253.11" x2="781.81" y2="282.04"/><line class="a" x1="238.99" y1="-248.1" x2="778.83" y2="287.05"/><line class="a" x1="236.01" y1="-243.08" x2="775.85" y2="292.06"/><line class="a" x1="233.04" y1="-238.07" x2="772.88" y2="297.08"/><line class="a" x1="230.06" y1="-233.06" x2="769.9" y2="302.09"/><line class="a" x1="227.08" y1="-228.05" x2="766.92" y2="307.1"/><line class="a" x1="224.1" y1="-223.03" x2="763.94" y2="312.12"/><line class="a" x1="221.12" y1="-218.02" x2="760.96" y2="317.13"/><line class="a" x1="218.15" y1="-213.01" x2="757.99" y2="322.14"/><line class="a" x1="215.17" y1="-207.99" x2="755.01" y2="327.16"/><line class="a" x1="212.19" y1="-202.98" x2="752.03" y2="332.17"/><line class="a" x1="209.21" y1="-197.97" x2="749.05" y2="337.18"/><line class="a" x1="206.23" y1="-192.95" x2="746.07" y2="342.2"/><line class="a" x1="203.25" y1="-187.94" x2="743.1" y2="347.21"/><line class="a" x1="200.28" y1="-182.93" x2="740.12" y2="352.22"/><line class="a" x1="197.3" y1="-177.91" x2="737.14" y2="357.23"/><line class="a" x1="194.32" y1="-172.9" x2="734.16" y2="362.25"/><line class="a" x1="191.34" y1="-167.89" x2="731.18" y2="367.26"/><line class="a" x1="188.36" y1="-162.88" x2="728.2" y2="372.27"/><line class="a" x1="185.39" y1="-157.86" x2="725.23" y2="377.29"/><line class="a" x1="182.41" y1="-152.85" x2="722.25" y2="382.3"/><line class="a" x1="179.43" y1="-147.84" x2="719.27" y2="387.31"/><line class="a" x1="176.45" y1="-142.82" x2="716.29" y2="392.33"/><line class="a" x1="173.47" y1="-137.81" x2="713.31" y2="397.34"/><line class="a" x1="170.49" y1="-132.8" x2="710.34" y2="402.35"/><line class="a" x1="167.52" y1="-127.78" x2="707.36" y2="407.36"/><line class="a" x1="164.54" y1="-122.77" x2="704.38" y2="412.38"/><line class="a" x1="161.56" y1="-117.76" x2="701.4" y2="417.39"/><line class="a" x1="539.5" y1="-156.5" x2="2" y2="381"/><line class="a" x1="534.5" y1="-159.5" x2="-3" y2="378"/><line class="a" x1="529.5" y1="-162.5" x2="-8" y2="375"/><line class="a" x1="524.5" y1="-165.5" x2="-13" y2="372"/><line class="a" x1="519.5" y1="-168.5" x2="-18" y2="369"/><line class="a" x1="514.5" y1="-171.5" x2="-23" y2="366"/><line class="a" x1="509.5" y1="-174.5" x2="-28" y2="363"/><line class="a" x1="504.5" y1="-177.5" x2="-33" y2="360"/><line class="a" x1="499.5" y1="-180.5" x2="-38" y2="357"/><line class="a" x1="494.5" y1="-183.5" x2="-43" y2="354"/><line class="a" x1="489.5" y1="-186.5" x2="-48" y2="351"/><line class="a" x1="484.5" y1="-189.5" x2="-53" y2="348"/><line class="a" x1="479.5" y1="-192.5" x2="-58" y2="345"/><line class="a" x1="474.5" y1="-195.5" x2="-63" y2="342"/><line class="a" x1="469.5" y1="-198.5" x2="-68" y2="339"/><line class="a" x1="464.5" y1="-201.5" x2="-73" y2="336"/><line class="a" x1="459.5" y1="-204.5" x2="-78" y2="333"/><line class="a" x1="454.5" y1="-207.5" x2="-83" y2="330"/><line class="a" x1="449.5" y1="-210.5" x2="-88" y2="327"/><line class="a" x1="444.5" y1="-213.5" x2="-93" y2="324"/><line class="a" x1="439.5" y1="-216.5" x2="-98" y2="321"/><line class="a" x1="434.5" y1="-219.5" x2="-103" y2="318"/><line class="a" x1="429.5" y1="-222.5" x2="-108" y2="315"/><line class="a" x1="424.5" y1="-225.5" x2="-113" y2="312"/><line class="a" x1="419.5" y1="-228.5" x2="-118" y2="309"/><line class="a" x1="414.5" y1="-231.5" x2="-123" y2="306"/><line class="a" x1="409.5" y1="-234.5" x2="-128" y2="303"/><line class="a" x1="404.5" y1="-237.5" x2="-133" y2="300"/><line class="a" x1="399.5" y1="-240.5" x2="-138" y2="297"/><line class="a" x1="394.5" y1="-243.5" x2="-143" y2="294"/><line class="a" x1="389.5" y1="-246.5" x2="-148" y2="291"/><line class="a" x1="384.5" y1="-249.5" x2="-153" y2="288"/><line class="a" x1="379.5" y1="-252.5" x2="-158" y2="285"/><line class="a" x1="374.5" y1="-255.5" x2="-163" y2="282"/><line class="a" x1="369.5" y1="-258.5" x2="-168" y2="279"/><line class="a" x1="364.5" y1="-261.5" x2="-173" y2="276"/><line class="a" x1="359.5" y1="-264.5" x2="-178" y2="273"/><line class="a" x1="354.5" y1="-267.5" x2="-183" y2="270"/><line class="a" x1="349.5" y1="-270.5" x2="-188" y2="267"/><line class="a" x1="696" x2="158.5" y2="537.5"/><line class="a" x1="691" y1="-3" x2="153.5" y2="534.5"/><line class="a" x1="686" y1="-6" x2="148.5" y2="531.5"/><line class="a" x1="681" y1="-9" x2="143.5" y2="528.5"/><line class="a" x1="676" y1="-12" x2="138.5" y2="525.5"/><line class="a" x1="671" y1="-15" x2="133.5" y2="522.5"/><line class="a" x1="666" y1="-18" x2="128.5" y2="519.5"/><line class="a" x1="661" y1="-21" x2="123.5" y2="516.5"/><line class="a" x1="656" y1="-24" x2="118.5" y2="513.5"/><line class="a" x1="651" y1="-27" x2="113.5" y2="510.5"/><line class="a" x1="646" y1="-30" x2="108.5" y2="507.5"/><line class="a" x1="641" y1="-33" x2="103.5" y2="504.5"/><line class="a" x1="636" y1="-36" x2="98.5" y2="501.5"/><line class="a" x1="631" y1="-39" x2="93.5" y2="498.5"/><line class="a" x1="626" y1="-42" x2="88.5" y2="495.5"/><line class="a" x1="621" y1="-45" x2="83.5" y2="492.5"/><line class="a" x1="616" y1="-48" x2="78.5" y2="489.5"/><line class="a" x1="611" y1="-51" x2="73.5" y2="486.5"/><line class="a" x1="606" y1="-54" x2="68.5" y2="483.5"/><line class="a" x1="601" y1="-57" x2="63.5" y2="480.5"/><line class="a" x1="596" y1="-60" x2="58.5" y2="477.5"/><line class="a" x1="591" y1="-63" x2="53.5" y2="474.5"/><line class="a" x1="586" y1="-66" x2="48.5" y2="471.5"/><line class="a" x1="581" y1="-69" x2="43.5" y2="468.5"/><line class="a" x1="576" y1="-72" x2="38.5" y2="465.5"/><line class="a" x1="571" y1="-75" x2="33.5" y2="462.5"/><line class="a" x1="566" y1="-78" x2="28.5" y2="459.5"/><line class="a" x1="561" y1="-81" x2="23.5" y2="456.5"/><line class="a" x1="556" y1="-84" x2="18.5" y2="453.5"/><line class="a" x1="551" y1="-87" x2="13.5" y2="450.5"/><line class="a" x1="546" y1="-90" x2="8.5" y2="447.5"/><line class="a" x1="541" y1="-93" x2="3.5" y2="444.5"/><line class="a" x1="536" y1="-96" x2="-1.5" y2="441.5"/><line class="a" x1="531" y1="-99" x2="-6.5" y2="438.5"/><line class="a" x1="526" y1="-102" x2="-11.5" y2="435.5"/><line class="a" x1="521" y1="-105" x2="-16.5" y2="432.5"/><line class="a" x1="516" y1="-108" x2="-21.5" y2="429.5"/><line class="a" x1="511" y1="-111" x2="-26.5" y2="426.5"/><line class="a" x1="506" y1="-114" x2="-31.5" y2="423.5"/><line class="a" x1="852.5" y1="156.5" x2="315" y2="694"/><line class="a" x1="847.5" y1="153.5" x2="310" y2="691"/><line class="a" x1="842.5" y1="150.5" x2="305" y2="688"/><line class="a" x1="837.5" y1="147.5" x2="300" y2="685"/><line class="a" x1="832.5" y1="144.5" x2="295" y2="682"/><line class="a" x1="827.5" y1="141.5" x2="290" y2="679"/><line class="a" x1="822.5" y1="138.5" x2="285" y2="676"/><line class="a" x1="817.5" y1="135.5" x2="280" y2="673"/><line class="a" x1="812.5" y1="132.5" x2="275" y2="670"/><line class="a" x1="807.5" y1="129.5" x2="270" y2="667"/><line class="a" x1="802.5" y1="126.5" x2="265" y2="664"/><line class="a" x1="797.5" y1="123.5" x2="260" y2="661"/><line class="a" x1="792.5" y1="120.5" x2="255" y2="658"/><line class="a" x1="787.5" y1="117.5" x2="250" y2="655"/><line class="a" x1="782.5" y1="114.5" x2="245" y2="652"/><line class="a" x1="777.5" y1="111.5" x2="240" y2="649"/><line class="a" x1="772.5" y1="108.5" x2="235" y2="646"/><line class="a" x1="767.5" y1="105.5" x2="230" y2="643"/><line class="a" x1="762.5" y1="102.5" x2="225" y2="640"/><line class="a" x1="757.5" y1="99.5" x2="220" y2="637"/><line class="a" x1="752.5" y1="96.5" x2="215" y2="634"/><line class="a" x1="747.5" y1="93.5" x2="210" y2="631"/><line class="a" x1="742.5" y1="90.5" x2="205" y2="628"/><line class="a" x1="737.5" y1="87.5" x2="200" y2="625"/><line class="a" x1="732.5" y1="84.5" x2="195" y2="622"/><line class="a" x1="727.5" y1="81.5" x2="190" y2="619"/><line class="a" x1="722.5" y1="78.5" x2="185" y2="616"/><line class="a" x1="717.5" y1="75.5" x2="180" y2="613"/><line class="a" x1="712.5" y1="72.5" x2="175" y2="610"/><line class="a" x1="707.5" y1="69.5" x2="170" y2="607"/><line class="a" x1="702.5" y1="66.5" x2="165" y2="604"/><line class="a" x1="697.5" y1="63.5" x2="160" y2="601"/><line class="a" x1="692.5" y1="60.5" x2="155" y2="598"/><line class="a" x1="687.5" y1="57.5" x2="150" y2="595"/><line class="a" x1="682.5" y1="54.5" x2="145" y2="592"/><line class="a" x1="677.5" y1="51.5" x2="140" y2="589"/><line class="a" x1="672.5" y1="48.5" x2="135" y2="586"/><line class="a" x1="667.5" y1="45.5" x2="130" y2="583"/><line class="a" x1="662.5" y1="42.5" x2="125" y2="580"/></g><path class="a" d="M475,383H2V73S120,2,239,2,475,74,475,74Z"/><path class="a" d="M475,383H2V73S120,2,239,2,475,74,475,74Z"/><path class="c" d="M475,383H2V73S120,2,239,2,475,74,475,74Z"/><path class="c" d="M2,123S115,55,238,55s237,67,237,67"/><line class="c" x1="2.5" y1="331" x2="475" y2="331"/><line class="c" x1="248" y1="383.5" x2="248" y2="2.17"/><line class="c" x1="366" y1="383.5" x2="366" y2="25.5"/><line class="c" x1="121" y1="382.5" x2="121" y2="21.5"/><line class="c" x1="61" y1="333.5" x2="61" y2="94.5"/><polygon class="c" points="60.93 45.81 44.5 68.81 60.93 94 76.26 68.81 60.93 45.81"/><polygon class="c" points="60.93 332.81 44.5 355.81 60.93 381 76.26 355.81 60.93 332.81"/><line class="c" x1="416" y1="333.5" x2="416" y2="93.5"/><polygon class="c" points="415.93 45.81 399.5 68.81 415.93 94 431.26 68.81 415.93 45.81"/><polygon class="c" points="415.93 332.81 399.5 355.81 415.93 381 431.26 355.81 415.93 332.81"/><line class="c" x1="185.5" y1="332.5" x2="185.5" y2="56.5"/><polygon class="c" points="185.43 7.81 169 30.81 185.43 56 200.76 30.81 185.43 7.81"/><polygon class="c" points="185.43 332.81 169 355.81 185.43 381 200.76 355.81 185.43 332.81"/><line class="c" x1="304.5" y1="333.5" x2="304.5" y2="58.5"/><polygon class="c" points="304.43 9.81 288 32.81 304.43 58 319.76 32.81 304.43 9.81"/><polygon class="c" points="304.43 333.81 288 356.81 304.43 382 319.76 356.81 304.43 333.81"/></svg>