<svg xmlns="http://www.w3.org/2000/svg" viewBox="0 0 72.07 40.52"><defs><style>.a{fill:#6e1417;}</style></defs><title>log</title><path class="a" d="M66.54,11.31a1.07,1.07,0,0,0-.3-.05l-21.06-.57c-.14-.45-.32-1.18-.47-1.88l.88-6.07a1.09,1.09,0,0,0,0-.39A2.17,2.17,0,0,0,44.2.74,7.59,7.59,0,0,0,41.77.07,9.06,9.06,0,0,0,40.7,0a6.47,6.47,0,0,0-1.46.15c-1.38.32-1.72,1.08-1.79,1.52a49.29,49.29,0,0,0-3.56,6.88c-.32.85-1.62,1.25-4.08,1.25-1.55,0-3.39-.16-5.16-.31-.94-.08-1.92-.17-2.88-.23-1.77-.12-4-.18-6.53-.18s-4.9.06-6.45.11a2.54,2.54,0,0,0-.51-.05,2.6,2.6,0,0,0-.5,0l-.19,0-.68,0c-2,0-3.84,1.78-5.11,4.93A29.36,29.36,0,0,0,0,24.84,29.38,29.38,0,0,0,1.8,35.5c1.27,3.15,3.08,4.89,5.11,4.92h0c.08,0,8.87.1,19.7.1l8.33,0c28.72-.15,30.54-1.06,31.22-1.4,2-1,3.49-3,4.43-6a41.36,41.36,0,0,0,1.43-10.62C72.38,13.27,66.78,11.38,66.54,11.31ZM7.2,38.2H7l-.18,0c-1-.14-2.1-1.46-2.94-3.54A27.15,27.15,0,0,1,2.2,24.84,27.16,27.16,0,0,1,3.83,15q.25-.61.52-1.14a26.65,26.65,0,0,0-.73,3.82,57.81,57.81,0,0,0-.24,8.95c.29,5.66,1.37,7,2.15,7.46a1.89,1.89,0,0,0,1,.3A2.26,2.26,0,0,0,7.77,34c1-.62,2.65-2.49,3.12-8.08.33-4-.17-7.11-.83-8.41,0-.1-.1-.2-.16-.29a1.63,1.63,0,0,0-1.39-.91,1.46,1.46,0,0,0-.35,0c-.82.21-1.46,1-1.93,4.13a30.69,30.69,0,0,0-.35,4.63A1.09,1.09,0,0,0,7,26.21H7a1.1,1.1,0,0,0,1.07-1.13,23.08,23.08,0,0,1,.19-3.25c.07-.6.16-1.2.26-1.72l0,.32a24.2,24.2,0,0,1,.11,5.33c-.27,3.19-1.08,5.68-2.07,6.38-.25-.35-.83-1.59-1-5.63A56.34,56.34,0,0,1,5.81,18c.52-4.32,1.54-5.85,1.91-6.28A6.7,6.7,0,0,1,10.07,15c.08.19.15.4.25.65A26.51,26.51,0,0,1,11.66,23c0,.23,0,.47,0,.7,0,.41,0,.78,0,1.13a27.16,27.16,0,0,1-1.64,9.83C9.26,36.7,8.18,38,7.2,38.2ZM69.86,22.4v.26H63l-6.32,0c-.54,0-1.17.05-1.79.1l-.5,0c-.62,0-1.27.11-1.74.11l-.16,0h0a1.08,1.08,0,1,0,0,2.17h.22c.59,0,1.3,0,2.05-.1l.51,0c.54,0,1-.09,1.47-.1l6.31,0h6.75c0,.7-.09,1.3-.15,1.85-1.78.17-7.31.67-9.55.67a13.06,13.06,0,0,1-3.72-.64l-.06,0A8.56,8.56,0,0,0,54,26.26H49.31a1.1,1.1,0,1,0,0,2.2H54a7.35,7.35,0,0,1,1.65.37l.07,0A15,15,0,0,0,60,29.6c2.19,0,7.12-.43,9.28-.63-.07.49-.16,1-.25,1.42l-3.84-.07a1.18,1.18,0,0,0-.35,0,7.81,7.81,0,0,1-1.88.31,1.09,1.09,0,0,0,0,2.19h0a9.14,9.14,0,0,0,2.33-.36l3.16.06a12.63,12.63,0,0,1-.94,2.23l-2.65-.22h-.09a1.09,1.09,0,0,0-1.09,1,1.1,1.1,0,0,0,1,1.18l1,.08a4.61,4.61,0,0,1-.52.31c-.25.12-1.71.54-10.27.84-5,.18-11.74.29-20,.33l-8.31,0c-6.48,0-12.27,0-16-.06a9.83,9.83,0,0,0,.74-1.13h.13c2.28.09,3.44.22,4.38.32a17.47,17.47,0,0,0,2.15.15h.6L21,37.52h.08c1.56-.06,3.32-.13,3.92-.13h.17a1.1,1.1,0,0,0,0-2.2H25c-.62,0-2.14.06-4.05.14l-2.46.1H18a15.37,15.37,0,0,1-1.91-.14c-.8-.09-1.9-.21-3.78-.3A21.68,21.68,0,0,0,13,32.9c1.76.1,2.72.21,3.47.31h0a13.06,13.06,0,0,0,2,.16H19a1.1,1.1,0,0,0,0-2.2H18.4A11,11,0,0,1,16.72,31c-.69-.09-1.62-.24-3.31-.33.11-.61.22-1.25.29-2h.47a1.1,1.1,0,1,0,0-2.2h-.31c0-.6,0-1.11,0-1.65,0-.13,0-.25,0-.38,1.38,0,4.24.07,6.74.07,1.62,0,2.92,0,3.59-.08,2.51-.18,6-.43,7-.43l6.16,0h.1a55,55,0,0,0,6.26.47,1.1,1.1,0,0,0-.05-2.2h0a35.54,35.54,0,0,1-6.29-.48l-6.12,0c-.59,0-2.27.07-6.94.42h-.19c-.58,0-1.81.06-3.64.06-2.26,0-5,0-6.62-.06-.06-.83-.14-1.63-.25-2.4l2,0h.07l1.28,0a1.1,1.1,0,0,0,.77-.34,1.16,1.16,0,0,0,.31-.81,1.13,1.13,0,0,0-1.1-1.12h0a7.94,7.94,0,0,1-1.29.08l-2.39,0a22.47,22.47,0,0,0-.94-3.17l7.62.24h0a1.1,1.1,0,0,0,0-2.2l-7.8-.24c-.2-.34-.4-.65-.61-.93,1.3,0,2.56,0,3.74,0,2.51,0,4.65.06,6.37.18.95.06,1.91.15,2.84.23,1.9.17,3.7.32,5.31.32.58,0,1.08,0,1.56-.06a7.69,7.69,0,0,0,2.86-.72h0L35.57,10l0,0a3.34,3.34,0,0,0,.36-.69,43,43,0,0,1,2.84-5.61h0l.29.12a1,1,0,0,0-.44.85,1.06,1.06,0,0,0,1.1,1.06h.15A1.06,1.06,0,0,0,41,4.7a1,1,0,0,0-.07-.36l.3.05h0a8.46,8.46,0,0,0,1.08.07,7.94,7.94,0,0,0,.82,0l-.64,4.25a1.13,1.13,0,0,0,0,.38h0c0,.24.18.87.35,1.51h0c.3,1.17.59,2.28,1.62,2.28L66,13.45a4.4,4.4,0,0,1,.66.38c-1.19,0-2.71-.1-3.81-.1a10.76,10.76,0,0,0-1.37,0c-1.29.23-2.52.4-2.79.4H56.15c-.08,0-.27,0-.5,0-.49,0-1.22-.08-1.95-.08a9.48,9.48,0,0,0-1.11.06,1.1,1.1,0,0,0,.13,2.2h.13a8.61,8.61,0,0,1,1,0c1,0,2.1.1,2.15.1h2.72a29.62,29.62,0,0,0,3.18-.43,8.08,8.08,0,0,1,.84,0c1.39,0,4.1.11,6,.2.11.2.21.4.3.62-2.22.11-6,.15-8.81.15-2.28,0-4.07,0-4.67-.06h-.07a1.1,1.1,0,0,0-.07,2.2c.65,0,2.51.07,4.85.07,3,0,7.27,0,9.43-.18.06.3.11.62.15.94l-7.49-.37h-.05a1.1,1.1,0,0,0-.05,2.2l7.6.37h.11C69.86,22.16,69.86,22.28,69.86,22.4Z"/><path class="a" d="M55.86,35.31a1,1,0,0,0-.23.36,1.12,1.12,0,0,0-1.05-.81h-1.1a1.1,1.1,0,0,0,0,2.2h1.1a1.08,1.08,0,0,0,1-.72,1.11,1.11,0,0,0,1.05.8h.05c.32,0,3.2-.14,5.08-.27a1.1,1.1,0,0,0-.07-2.19h-.07c-1.85.13-4.71.25-5,.27A1.09,1.09,0,0,0,55.86,35.31Z"/><path class="a" d="M50.58,34.8A6,6,0,0,1,49,34.52a7.41,7.41,0,0,0-1.8-.33h0a1.11,1.11,0,0,0-1.1,1.08,1.1,1.1,0,0,0,1.07,1.13,5.39,5.39,0,0,1,1.27.23,8,8,0,0,0,2.13.34h0a1.07,1.07,0,0,0,1.1-1.08A1.09,1.09,0,0,0,50.58,34.8Z"/><path class="a" d="M39.91,34.76H36.24c-.87,0-3.93.38-4.36.44a1.11,1.11,0,0,0-.73.42,1.09,1.09,0,0,0-.22.81,1.1,1.1,0,0,0,1.09,1h.11l0,0c1.69-.21,3.6-.42,4.08-.42h3.67a1.1,1.1,0,0,0,0-2.2Z"/><path class="a" d="M46.33,30.06h0a1.1,1.1,0,0,0,0,2.19,4.75,4.75,0,0,1,1.08.22l.32.07a7.41,7.41,0,0,0,2,.33h0c1,0,4.08.45,5.09.6h.27s2.42-.23,4.31-.23a1.1,1.1,0,0,0,0-2.2c-1.71,0-3.69.18-4.34.24h0c-.24,0-3.94-.61-5.29-.61h0a5.38,5.38,0,0,1-1.42-.24L48,30.37A6.93,6.93,0,0,0,46.33,30.06Z"/><path class="a" d="M42.15,30.33h-.24l-1.51.13H36.61c-.73,0-3,.3-4.36.46a12.4,12.4,0,0,1-1.5.08c-.87,0-1.8,0-2.25-.05h-.36a1.1,1.1,0,0,0,0,2.2h.3c.55,0,1.46.06,2.35.06a14.35,14.35,0,0,0,1.77-.1c1.68-.21,3.59-.45,4.08-.45h3.67a1,1,0,0,0,.21,0h0l1.71-.15a1.1,1.1,0,0,0-.09-2.19Z"/><path class="a" d="M34.3,28.31h.06a1.11,1.11,0,0,0,.6-.17,1.06,1.06,0,0,0,.43-1,1,1,0,0,0-1-1.08H28.16c-1.39,0-6.54.38-7.13.42a1.1,1.1,0,0,0,.08,2.2h.08c2.72-.2,6-.41,6.94-.41Z"/><path class="a" d="M24,14.36h0c.53,0,1.64.1,2.45.16.6,0,1.12.1,1.44.11h0a1.1,1.1,0,0,0,0-2.2c-.28,0-.81-.07-1.37-.1-.89-.06-2-.16-2.59-.16h0a1.12,1.12,0,0,0-.78.35A1.08,1.08,0,0,0,24,14.36Z"/><path class="a" d="M31.49,14.49h.42c1,0,3.51-.12,5-1.19C37.69,12.7,39,9.88,40,7.36a1.1,1.1,0,0,0-1-1.49,1.11,1.11,0,0,0-1,.71c-.24.62-.48,1.22-.72,1.79a16.7,16.7,0,0,1-1.68,3.2,6.21,6.21,0,0,1-2.82.7l-.79,0h-.38a1.1,1.1,0,0,0-.05,2.2Z"/><path class="a" d="M28.05,18a2.77,2.77,0,0,1-.73-.22,4.6,4.6,0,0,0-1.71-.4h-.06c-.85,0-3.69-.22-4-.24l-.06,0H19.3a1.1,1.1,0,1,0,0,2.2h2.14l1.3.07c1,.06,2.29.13,2.85.13h0a2.55,2.55,0,0,1,.82.24l.12.06a4.25,4.25,0,0,0,1.42.36h0a1.1,1.1,0,0,0,0-2.19Z"/><path class="a" d="M46.3,28.76a1.1,1.1,0,1,0,0-2.2h-1.1a1.1,1.1,0,0,0,0,2.2Z"/><path class="a" d="M18.17,26.46H16.79a1.1,1.1,0,1,0,0,2.2h1.37a1.1,1.1,0,1,0,0-2.2Z"/><path class="a" d="M33.85,18a1.1,1.1,0,0,0-.28,0,3.16,3.16,0,0,1-.82.1,4.43,4.43,0,0,1-.94-.1,1.12,1.12,0,0,0-.27,0,1.1,1.1,0,0,0-.27,2.17,6.36,6.36,0,0,0,1.48.17,5.39,5.39,0,0,0,1.39-.17A1.1,1.1,0,0,0,33.85,18Z"/><path class="a" d="M42.92,17.61c-.06,0-1.38-.15-2.8-.23-.56,0-1,0-1.44,0-1.65,0-2.23.24-2.58.6a1.1,1.1,0,0,0,.79,1.87h0a1.09,1.09,0,0,0,.62-.19,5,5,0,0,1,1.1-.08,40.54,40.54,0,0,1,4.06.26h.12a1.1,1.1,0,0,0,.12-2.19Z"/><path class="a" d="M47.22,17.68l-1.73,0a1.1,1.1,0,0,0,0,2.2l1.72,0A1.1,1.1,0,0,0,48,18,1.09,1.09,0,0,0,47.22,17.68Z"/><path class="a" d="M59.61,19.52,57,19.5a1.08,1.08,0,1,0,0,2.16l2.59,0a1.11,1.11,0,0,0,1.1-1.08A1.08,1.08,0,0,0,59.61,19.52Z"/><path class="a" d="M54.6,19.48l-1.7,0h0a1.1,1.1,0,0,0,0,2.2l1.72,0a1.11,1.11,0,0,0,1.1-1.08,1.1,1.1,0,0,0-1.07-1.13Z"/><path class="a" d="M22.21,31h-.8a1.1,1.1,0,0,0,0,2.2h.8a1.1,1.1,0,0,0,0-2.2Z"/><path class="a" d="M25,31h-.15a1.1,1.1,0,1,0,0,2.2H25A1.1,1.1,0,0,0,25,31Z"/><path class="a" d="M49.91,14.06h-.8a1.1,1.1,0,1,0,0,2.2h.8a1.1,1.1,0,1,0,0-2.2Z"/><path class="a" d="M45.64,16.26h.8a1.1,1.1,0,0,0,0-2.2h-.8a1.1,1.1,0,0,0,0,2.2Z"/><path class="a" d="M36.88,28.26h2.56a1.1,1.1,0,0,0,.05-2.2H36.87a1.08,1.08,0,1,0,0,2.16Z"/><path class="a" d="M40,10.1a11.29,11.29,0,0,0,1.16,3.52,1.1,1.1,0,0,0,2-1A9.18,9.18,0,0,1,42.22,10a1.1,1.1,0,0,0-1.1-1h-.06A1.1,1.1,0,0,0,40,10.1Z"/></svg>