<svg xmlns="http://www.w3.org/2000/svg" viewBox="0 0 358.3 174.47"><defs><style>.a{fill:#fff0f0;}.b{fill:#00a14b;}</style></defs><title>logo</title><path class="a" d="M119.4,6.2q-.15.56-.26,1.15a4.64,4.64,0,0,1-.59,1.44,11.78,11.78,0,0,1-1.59,2,26.88,26.88,0,0,1-3.26,2.82q-1.28,1-3.92,3.13l-6.13,5L96.18,28q-4,3.31-7.92,6.69t-7.51,6.56q-3.59,3.18-6.2,5.69-3.9,3.85-8,7.79t-8.13,8.1q-4.05,4.15-8,8.56T43,80.54a12.45,12.45,0,0,1-1.51,1.69,5.67,5.67,0,0,1-1.15.82,8.15,8.15,0,0,1-.87.38,3,3,0,0,0-.67.33,1.58,1.58,0,0,1-.62.21,1,1,0,0,1-.64-.28,1,1,0,0,1-.33-.85,2.59,2.59,0,0,0-.08-.72,2.62,2.62,0,0,0-.15-.41l-.13-.26a.72.72,0,0,1-.05-.31l.21-.72A14.88,14.88,0,0,1,38.25,78q1.08-1.82,2.95-4.51t4.51-6.13q2.64-3.43,6-7.36T59,51.78q3.95-4.25,8.46-8.61a6.4,6.4,0,0,0-1.23.1,4.94,4.94,0,0,1-1,.1,1.28,1.28,0,0,1-.67-.15.55.55,0,0,1-.26-.51,1,1,0,0,0-.13-.41L64,42.12a.82.82,0,0,1-.15-.26,2.39,2.39,0,0,1-.13-.59q-.05-.46-.38-2.54L62.57,34q-.44-2.69-.87-5.59t-.69-5q-.15-1.43-.41-3.41t-.54-4.1q-.28-2.13-.59-4.23t-.54-3.85l-.38-2.92q-.15-1.18-.15-1.49A.32.32,0,0,1,58.65,3a2.35,2.35,0,0,1,.67-.08q.36,0,.9.05a9,9,0,0,1,1.56.36s.1-.14.21-.41.24-.41.41-.41A2,2,0,0,1,63.52,3a.56.56,0,0,0,.36.21c.21,0,.37-.13.49-.38A7.89,7.89,0,0,0,64.7,2a.64.64,0,0,1,.21-.46.7.7,0,0,1,.51-.21.93.93,0,0,1,.54.21,2.05,2.05,0,0,1,.54.67,3.87,3.87,0,0,1,.41,1.08c.07.34.14.51.21.51a1.51,1.51,0,0,1,0-.56c0-.21,0-.48.05-.82s.08-.77.15-1.28a.9.9,0,0,1,.56-.85A2.51,2.51,0,0,1,69,0a1.88,1.88,0,0,1,.79.15.57.57,0,0,1,.33.56,4.63,4.63,0,0,0,.13,1q.13.56.28,1.44t.31,2.2q.15,1.33.26,3.33,0,1.33.18,3.44t.44,4.56q.26,2.46.56,5.08t.59,4.87q.28,2.26.51,4t.33,2.44L74,35q.15,1,.31,1.82,5.08-4.56,8.9-7.95T89.87,23q2.82-2.54,4.84-4.33t3.59-3.15q1.56-1.36,2.85-2.41T103.77,11l2-1.56,2.41-1.9q1.26-1,2.56-2t2.41-1.87q1.1-.87,1.95-1.49t1.26-.87A1.62,1.62,0,0,1,117,1a1.81,1.81,0,0,1,.44-.08,1.1,1.1,0,0,1,.9.41,11.45,11.45,0,0,0,.79.87,1.3,1.3,0,0,1,.51.77,4.74,4.74,0,0,1,.1,1A8.36,8.36,0,0,1,119.4,6.2Z"/><path class="a" d="M117.06,38.76q-.26.21-1.67,1.44T112,43.32q-2,1.9-4.46,4.28t-4.79,4.95q-2.36,2.56-4.38,5.08a34,34,0,0,0-3.2,4.61,21.92,21.92,0,0,0-2,4.33,11.33,11.33,0,0,0-.59,3.36v.54a1.32,1.32,0,0,0,.1.49,1.42,1.42,0,0,0,.62.1,6.54,6.54,0,0,0,3-1,34.68,34.68,0,0,0,4.54-3.23q2.72-2.2,6.46-5.61T116,53q6.25-5.95,10.2-9.54t6.18-5.59l3.13-2.79a7.89,7.89,0,0,0,1.1-1.1c.17-.27.34-.41.51-.41a1,1,0,0,1,.38.1,1.45,1.45,0,0,0,.59.1.71.71,0,0,1,.44.1.73.73,0,0,1,.21.28,2.7,2.7,0,0,0,.21.38,1.63,1.63,0,0,0,.38.41,3.24,3.24,0,0,1,.59,1.31,7.1,7.1,0,0,1,.28,1.92,2,2,0,0,1-.36,1.38,20.28,20.28,0,0,0-1.95,2.1q-1.59,1.85-3.92,4.64t-5.1,6.2q-2.77,3.41-5.49,6.69-3,3.64-5,6.59T115,70.91q-1.28,2.15-1.92,3.46t-.85,1.77a3.57,3.57,0,0,1-.31.54l-.21.26-.28.38a6.53,6.53,0,0,0-.49.92,3.5,3.5,0,0,1-.56.87,1.31,1.31,0,0,1-.49.33,2.3,2.3,0,0,1-.44.1.72.72,0,0,0-.41.23,3.4,3.4,0,0,1-.36.31.63.63,0,0,1-.36.15q-.51,0-.82-.87a3.23,3.23,0,0,0-.38-.67l-.46-.62a2.79,2.79,0,0,1-.38-.74,3.36,3.36,0,0,1-.15-1.1,1.2,1.2,0,0,1,.05-.33,1.62,1.62,0,0,0,.05-.44,6.18,6.18,0,0,1,.51-2,18.87,18.87,0,0,1,1.1-2.21q.64-1.1,1.33-2.15t1.26-1.87l3.13-4.87q-1.38,1.18-2.85,2.61t-2.85,2.87l-2.61,2.72q-1.23,1.28-2.15,2.2a17.77,17.77,0,0,1-2.49,2,26.43,26.43,0,0,1-2.74,1.59,15.73,15.73,0,0,1-2.74,1.08,9,9,0,0,1-2.44.38h-.46a.92.92,0,0,1-.41-.1,4.35,4.35,0,0,1-1.44-.62A6.54,6.54,0,0,1,89,75.83a7.53,7.53,0,0,1-1.77-2.08,7.7,7.7,0,0,1-.74-3.82v-1a7.24,7.24,0,0,1,.1-1.18,19.37,19.37,0,0,1,2.18-6.49,54.06,54.06,0,0,1,4.43-7.08,89.1,89.1,0,0,1,5.64-6.92q3-3.36,5.77-6t4.82-4.36a16,16,0,0,1,2.79-2,4,4,0,0,1,.87-.26l.67-.08.64-.05a4.49,4.49,0,0,0,.74-.13,1.32,1.32,0,0,1,.49-.1h.49a2.69,2.69,0,0,1,1.26.28l1.05.54q1.13.67,1.13,1.23a.85.85,0,0,1-.41.77Z"/><path class="a" d="M182.53,8a3.59,3.59,0,0,1,.33.62,1.87,1.87,0,0,1,.13.72,3.72,3.72,0,0,1-.15,1.08,2.3,2.3,0,0,1-.41.82q-.26.51-1.38,2.18t-2.92,4.13l-4,5.54q-2.23,3.08-4.67,6.36L164.56,36l-4.61,6.15Q157.76,45,156,47.3l-2.77,3.61-3.18,4.28-3.85,5.2q-2,2.72-3.95,5.41l-3.54,4.87q-1.59,2.18-2.61,3.61T135,75.93a2.91,2.91,0,0,1-.51.74.68.68,0,0,1-.46.18h-.1a.9.9,0,0,1-.44.51,4.93,4.93,0,0,1-.9.46,5.61,5.61,0,0,1-1.08.31,5.41,5.41,0,0,1-.92.1.81.81,0,0,1-.59-.18,1.69,1.69,0,0,1-.31-.44,5.17,5.17,0,0,0-.26-.46.77.77,0,0,0-.44-.31l-1-.51a.76.76,0,0,1-.51-.67v-.31a.84.84,0,0,0-.21-.62.83.83,0,0,1-.21-.62q.05-.31.38-1.38a25.46,25.46,0,0,1,1.21-2.95q.87-1.87,2.44-4.51a56.93,56.93,0,0,1,4.18-6q2.26-2.92,5.31-6.72t6.54-8q3.48-4.23,7.18-8.64l7.23-8.61q3.54-4.2,6.72-7.92l5.59-6.56,3.9-4.59q1.49-1.74,1.64-1.95a1.45,1.45,0,0,1,1.08-.41,1.57,1.57,0,0,1,1.13.51q.26.26.36.38a.93.93,0,0,1,.15.28c0,.1.07.22.1.36A1.86,1.86,0,0,0,182.53,8Z"/><path class="a" d="M194.6,56.6q-.21.87-.56,2.05A14.53,14.53,0,0,1,193,61.19,17.66,17.66,0,0,1,191.11,64a18.9,18.9,0,0,1-2.82,2.79q-1.08.92-1.79,1.61t-1.2,1.26l-.9,1.05q-.41.49-.9,1a15.81,15.81,0,0,1-1.18,1.15,21.52,21.52,0,0,1-1.77,1.38A22.2,22.2,0,0,1,177.81,76a25,25,0,0,1-3.15,1.44,23.66,23.66,0,0,1-3.31,1,15.26,15.26,0,0,1-3.21.36,7.75,7.75,0,0,1-3.69-.87,7.28,7.28,0,0,1-2.67-1.28,12.29,12.29,0,0,1-2.67-2.67,14.47,14.47,0,0,1-2-3.9,15.05,15.05,0,0,1-.79-5,21.34,21.34,0,0,1,1.77-7.95,33,33,0,0,1,6.18-9.28,58.43,58.43,0,0,1,7.18-6.67,45.76,45.76,0,0,1,7.15-4.61,35.36,35.36,0,0,1,6.69-2.67A21.94,21.94,0,0,1,191,33a10.24,10.24,0,0,1,1.05.05,8.63,8.63,0,0,1,.95.15,1.6,1.6,0,0,1,.67-.1,6.8,6.8,0,0,1,2.31.38,5.56,5.56,0,0,1,1.87,1.1,5.71,5.71,0,0,1,1.28,1.69,4.76,4.76,0,0,1,.49,2.15,9.59,9.59,0,0,1-1.33,4.87,18.08,18.08,0,0,1-3.49,4.28,28.33,28.33,0,0,1-4.87,3.56,41.34,41.34,0,0,1-5.54,2.72,37.83,37.83,0,0,1-5.46,1.74,20.64,20.64,0,0,1-4.59.62,14.13,14.13,0,0,1-3.23-.41,11.1,11.1,0,0,1-2.77-1,46.44,46.44,0,0,0-4.08,6.95,13.38,13.38,0,0,0-1.36,5.46,6.76,6.76,0,0,0,.41,2.51,7.81,7.81,0,0,0,3.43.62,17.94,17.94,0,0,0,4.87-.79A33.29,33.29,0,0,0,177.71,67a54.94,54.94,0,0,0,7-4.46,73.3,73.3,0,0,0,7.74-6.64,11.16,11.16,0,0,1,1.21-1.08,1.49,1.49,0,0,1,.79-.36q.31,0,.31.62Zm-7.23-11.13A27.53,27.53,0,0,0,190.93,43a18.69,18.69,0,0,0,2.26-2.18A7.52,7.52,0,0,0,194.4,39a5,5,0,0,0,.41-1.51,1.86,1.86,0,0,0-1.59-.62,9.42,9.42,0,0,0-2.79.54,28.08,28.08,0,0,0-3.62,1.49q-1.95.95-4.08,2.23t-4.15,2.79a49.73,49.73,0,0,0-3.87,3.2,28.76,28.76,0,0,0-3.18,3.38,10.22,10.22,0,0,0-1.08,1.38,3.25,3.25,0,0,0,.79.1H172a16.24,16.24,0,0,0,6.36-1.67A82.35,82.35,0,0,0,187.37,45.48Z"/><path class="a" d="M276.07,36.45a30.09,30.09,0,0,1,4.18.59A15.42,15.42,0,0,1,284,38.35,11.09,11.09,0,0,1,287,40.63a10.63,10.63,0,0,1,2.15,3.56,14.58,14.58,0,0,1,.46,1.61,8,8,0,0,1,.21,1.77,15.9,15.9,0,0,1-2.51,8.51,31.81,31.81,0,0,1-6.61,7.51,53.15,53.15,0,0,1-9.36,6.25,82.54,82.54,0,0,1-10.72,4.77A77.26,77.26,0,0,1,250,77.67a46.64,46.64,0,0,1-9.28,1.08,19.8,19.8,0,0,1-4.69-.49,7,7,0,0,1-3.1-1.51,6.08,6.08,0,0,1-1.95-4.51q0-.46.05-1a8.21,8.21,0,0,1,.15-1,.77.77,0,0,0-.05-.28.61.61,0,0,1-.05-.23,16.81,16.81,0,0,0-1.28,1.54q-.56.77-1,1.49a3.14,3.14,0,0,1-.64.79,6.5,6.5,0,0,1-.69.51,6.8,6.8,0,0,0-.67.49,2.53,2.53,0,0,0-.56.72q-.77,1.59-1.33,1.59a1,1,0,0,1-.79-.38,4.57,4.57,0,0,1-.59-.87,9.56,9.56,0,0,1-.46-1c-.14-.36-.26-.64-.36-.85q-.31-.67-.54-1.31a4.31,4.31,0,0,1-.23-1.46,8.48,8.48,0,0,1,1.49-4.1q.77-1.18,2.05-2.9l2.77-3.72q1.49-2,3-4.15t2.95-4.2q.82-1.23,2.9-3.95t4.79-6.2l5.82-7.43,6-7.72,5.43-7q2.49-3.2,4-5.26-3.08.82-6.1,1.85a63.52,63.52,0,0,0-5.95,2.36.3.3,0,0,1-.21.1h-.21a1,1,0,0,1-1-.69,3,3,0,0,1-.31-1.15,3.33,3.33,0,0,1,.1-.82,2.92,2.92,0,0,0,.1-.67.41.41,0,0,0-.21-.41q-.31-.15-.51-.28a.42.42,0,0,1-.21-.38q0-.26.72-.82a18.85,18.85,0,0,1,2.67-1.33q1.9-.82,4.59-1.77t6-1.9q3.33-.95,7-1.74t7.56-1.28a61,61,0,0,1,7.61-.49,37.64,37.64,0,0,1,5.64.44,18.9,18.9,0,0,1,5.18,1.51,10.48,10.48,0,0,1,3.79,2.92A7.2,7.2,0,0,1,301,14.46a6.28,6.28,0,0,1-.15,1.46q-.15.64-.31,1.2a13.06,13.06,0,0,1-1.31,3.74,21.42,21.42,0,0,1-2.51,3.79,24.82,24.82,0,0,1-3.49,3.46A27.4,27.4,0,0,1,289,31q-2.72,1.44-5.9,2.82T276.07,36.45ZM244.69,62.91a1.31,1.31,0,0,1,.69.49,1.27,1.27,0,0,1,.23.74,1.78,1.78,0,0,1-.31.95,1.45,1.45,0,0,1-.92.64,35.11,35.11,0,0,0-4.69,1.9q-1.31.72-1.31,1.54a1.59,1.59,0,0,0,.1.67,11.1,11.1,0,0,0,1.33.1h1.08a33,33,0,0,0,8.38-1.23,66.89,66.89,0,0,0,9.43-3.31,84.48,84.48,0,0,0,9.36-4.77A62.8,62.8,0,0,0,276.2,55,32.4,32.4,0,0,0,281.91,49a9.86,9.86,0,0,0,2.15-5.67,1.26,1.26,0,0,0-.31-.72,3.4,3.4,0,0,0-.31-.36,4.76,4.76,0,0,0-1.79-.95,24.17,24.17,0,0,0-3.15-.79,42.23,42.23,0,0,0-4.23-.56q-2.36-.2-5-.21h-2.1q-1.08,0-2.21.1Q261.25,41,257.28,42t-8,1.82q-1.74,2.26-4,5.26T241,55q-2.13,2.95-3.79,5.41A42.57,42.57,0,0,0,234.9,64a15,15,0,0,1,2.1-1,20.88,20.88,0,0,1,2.2-.72q1.08-.28,2.05-.44a11.3,11.3,0,0,1,1.74-.15,1.36,1.36,0,0,1,1.08.41Q244.43,62.55,244.69,62.91Zm25.07-47.27q-.15.15-.92,1.21t-1.92,2.72l-2.61,3.77-3,4.33q-1.56,2.23-3.15,4.44t-2.92,4.1q3.44-1.33,7.49-3t8.25-3.51q4.2-1.85,8.25-3.85t7.43-4a54.49,54.49,0,0,0,5.87-3.95A13.69,13.69,0,0,0,296,14.15a.94.94,0,0,1,.05-.31,1,1,0,0,0,.05-.31,1.14,1.14,0,0,0-.23-.74,3.48,3.48,0,0,0-.79-.64,10.35,10.35,0,0,0-2.77-.49q-2.31-.23-5.95-.23t-8.1.36a84.1,84.1,0,0,0-9.54,1.33,3.6,3.6,0,0,1,.9,1.08,2.29,2.29,0,0,1,.33,1Z"/><path class="a" d="M329.91,56.6q-.21.87-.56,2.05a14.54,14.54,0,0,1-1.08,2.54A17.66,17.66,0,0,1,326.42,64a18.94,18.94,0,0,1-2.82,2.79q-1.08.92-1.79,1.61t-1.21,1.26l-.9,1.05q-.41.49-.9,1a15.6,15.6,0,0,1-1.18,1.15,21.86,21.86,0,0,1-1.77,1.38A22.2,22.2,0,0,1,313.12,76,25,25,0,0,1,310,77.42a23.62,23.62,0,0,1-3.31,1,15.26,15.26,0,0,1-3.21.36,7.75,7.75,0,0,1-3.69-.87,7.28,7.28,0,0,1-2.67-1.28,12.31,12.31,0,0,1-2.67-2.67,14.44,14.44,0,0,1-2-3.9,15.05,15.05,0,0,1-.79-5,21.36,21.36,0,0,1,1.77-7.95,33,33,0,0,1,6.18-9.28,58.57,58.57,0,0,1,7.18-6.67,45.81,45.81,0,0,1,7.15-4.61,35.39,35.39,0,0,1,6.69-2.67,21.94,21.94,0,0,1,5.74-.87,10.22,10.22,0,0,1,1.05.05,8.69,8.69,0,0,1,.95.15,1.59,1.59,0,0,1,.67-.1,6.79,6.79,0,0,1,2.31.38,5.54,5.54,0,0,1,1.87,1.1,5.71,5.71,0,0,1,1.28,1.69,4.76,4.76,0,0,1,.49,2.15,9.59,9.59,0,0,1-1.33,4.87,18.08,18.08,0,0,1-3.49,4.28,28.32,28.32,0,0,1-4.87,3.56,41.46,41.46,0,0,1-5.54,2.72,37.84,37.84,0,0,1-5.46,1.74,20.63,20.63,0,0,1-4.59.62,14.12,14.12,0,0,1-3.23-.41,11.11,11.11,0,0,1-2.77-1,46.51,46.51,0,0,0-4.08,6.95,13.38,13.38,0,0,0-1.36,5.46,6.76,6.76,0,0,0,.41,2.51,7.81,7.81,0,0,0,3.43.62,17.94,17.94,0,0,0,4.87-.79A33.29,33.29,0,0,0,313,67a54.81,54.81,0,0,0,7-4.46,73.2,73.2,0,0,0,7.74-6.64A11.35,11.35,0,0,1,329,54.86a1.49,1.49,0,0,1,.79-.36c.21,0,.31.21.31.62Zm-7.23-11.13A27.55,27.55,0,0,0,326.24,43a18.69,18.69,0,0,0,2.26-2.18A7.51,7.51,0,0,0,329.7,39a4.91,4.91,0,0,0,.41-1.51,1.86,1.86,0,0,0-1.59-.62,9.44,9.44,0,0,0-2.79.54,28.08,28.08,0,0,0-3.62,1.49q-1.95.95-4.08,2.23t-4.15,2.79a49.91,49.91,0,0,0-3.87,3.2,28.75,28.75,0,0,0-3.18,3.38,10.14,10.14,0,0,0-1.08,1.38,3.25,3.25,0,0,0,.79.1h.79a16.23,16.23,0,0,0,6.36-1.67A82.26,82.26,0,0,0,322.68,45.48Z"/><path class="a" d="M114.59,153.4a3.66,3.66,0,0,0-.38.26.77.77,0,0,0-.21.26,1.27,1.27,0,0,0-.1.44l-.08.79a8,8,0,0,1-.13.87,3,3,0,0,1-.26.72,2.83,2.83,0,0,1-.54.72q-.36.36-.92.87a14.29,14.29,0,0,0-1.33,1.51q-1,1.2-2.51,2.85a48.48,48.48,0,0,1-3.64,3.46,31.85,31.85,0,0,1-4.72,3.36A28.48,28.48,0,0,1,94.05,172a21.71,21.71,0,0,1-6.69,1,8,8,0,0,1-4.79-1.41,11.9,11.9,0,0,1-3.33-3.72A22.38,22.38,0,0,1,77,162.6a62.92,62.92,0,0,1-1.41-6.2q-.56-3.2-.95-6.33t-.85-5.74a8.44,8.44,0,0,0-1.1-2.67,5.3,5.3,0,0,0-1.62-1.59,6,6,0,0,0-2-.77,11.13,11.13,0,0,0-2.13-.21h-.72a2.45,2.45,0,0,0-.67.1q-1.8,2.51-4,5.74t-4.54,6.61q-2.31,3.38-4.51,6.69t-4,6q-1.77,2.72-2.95,4.56a26.8,26.8,0,0,0-1.38,2.31,19.1,19.1,0,0,1-1.08,2.08,1.2,1.2,0,0,1-1,.64h-.33a.59.59,0,0,1-.33-.1,6.53,6.53,0,0,1-1.95-1A4.75,4.75,0,0,1,38,170.93a3.83,3.83,0,0,0-.38-.72,1.22,1.22,0,0,1-.21-.36,3.91,3.91,0,0,1-.15-.62q-.08-.41-.23-1.49a1.38,1.38,0,0,1-.1-.51v-.51a7,7,0,0,1,.18-1.49,10.15,10.15,0,0,1,.69-1.95,29.74,29.74,0,0,1,1.44-2.69q.92-1.56,2.41-3.77t3.56-5.08q2.08-2.87,4.95-6.67,2.67-3.54,5.69-7.23T62,130.58q3.1-3.59,6.18-7T74,117.2q2.72-3,4.95-5.38l3.72-4q-4.15.87-7.69,1.79a50.28,50.28,0,0,0-5.84,1.85l-.56.26a1.37,1.37,0,0,1-.51.1.57.57,0,0,1-.56-.31A1,1,0,0,0,67,111a.33.33,0,0,1-.21-.31q0-.2.62-.82a2.59,2.59,0,0,0,.26-.36,1,1,0,0,0,.08-.21.6.6,0,0,1,.21-.26,7.51,7.51,0,0,1,.64-.46.84.84,0,0,0,.31-.51c0-.17-.12-.29-.36-.36s-.36-.15-.36-.26q.31-.31.46-.44a1.49,1.49,0,0,1,.26-.18l.26-.1.46-.15q.56-.31,2.41-1.1t4.59-1.79q2.74-1,6.25-2.08t7.43-2q3.92-.9,8.13-1.49a60.18,60.18,0,0,1,8.36-.59h1a22.56,22.56,0,0,1,4.36.56,13.15,13.15,0,0,1,3.28,1.23,9.51,9.51,0,0,1,2.31,1.74,9.19,9.19,0,0,1,1.49,2.05,10.19,10.19,0,0,1,2.59,3.61,10.86,10.86,0,0,1,.85,4.23,15.64,15.64,0,0,1-.59,3.85,13.9,13.9,0,0,1-2.59,4.85,28,28,0,0,1-5.79,5.33,48.14,48.14,0,0,1-10.2,5.31q-4.92,1.95-9.28,3.28t-8.1,2.18q-3.74.85-6.9,1.28t-5.67.59a16.61,16.61,0,0,1,4,2.56,12.54,12.54,0,0,1,3,3.95,38.73,38.73,0,0,1,2.23,5.92q.95,3.26,1.92,6.13a21.83,21.83,0,0,0,2.23,4.82,3.72,3.72,0,0,0,3.2,1.95,27.64,27.64,0,0,0,10.28-2.51,58.68,58.68,0,0,0,12.89-7.79,1.73,1.73,0,0,1,1-.31q.62,0,.62.41A.57.57,0,0,1,114.59,153.4ZM106,104.54q-3.08.15-7.13.62t-8.41,1.18Q89,108.13,86.72,111T82,117.23q-2.49,3.31-5,6.64t-4.54,6a139.85,139.85,0,0,0,15-3.28,70.72,70.72,0,0,0,13-5l5.74-2.92a46.55,46.55,0,0,0,5.31-3.13,17.67,17.67,0,0,0,3.87-3.51,6.41,6.41,0,0,0,1.49-4.08,5.12,5.12,0,0,0-.41-2,5.24,5.24,0,0,0-2.54-1.18,19.85,19.85,0,0,0-3.77-.31h-2Q107.15,104.43,106,104.54Z"/><path class="a" d="M150.74,133.2a.69.69,0,0,1-.23.62,1.4,1.4,0,0,1-.59.21l-.85.1a3.15,3.15,0,0,0-.95.26,47.87,47.87,0,0,0-7.41,3.79,51.71,51.71,0,0,0-11.15,9.41,50.28,50.28,0,0,0-3.79,4.79,36.26,36.26,0,0,0-2.59,4.31,20.62,20.62,0,0,0-1.41,3.44,7.26,7.26,0,0,0-.33,1.41,10.89,10.89,0,0,0-.08,1.31,4.65,4.65,0,0,0,1.23,3.59,4.21,4.21,0,0,0,1,.18l.92,0a12.52,12.52,0,0,0,3.95-.74,20.48,20.48,0,0,0,4.79-2.49,43.73,43.73,0,0,0,5.54-4.54,59.06,59.06,0,0,0,6.13-6.95,52.54,52.54,0,0,0,3.82-5.67,42.11,42.11,0,0,0,2.41-4.82,22.83,22.83,0,0,0,1.26-3.87,14.22,14.22,0,0,0,.36-2.87,6.38,6.38,0,0,0-.18-1.67,2.62,2.62,0,0,0-.44-.95,2.57,2.57,0,0,1-.72-1.28.44.44,0,0,1,.18-.38,2.11,2.11,0,0,1,.44-.23c.17,0,.26-.05.26-.15s.08-.15.26-.15a1.2,1.2,0,0,1,.36.1,4.7,4.7,0,0,1,.82.51q.62.46,1.2.95a10.11,10.11,0,0,1,1.21,1.2,16.8,16.8,0,0,1,1.28,1.74,24.77,24.77,0,0,1,1.44,2.61,8.34,8.34,0,0,1,.28.95,5.5,5.5,0,0,1,.13,1.26,17.12,17.12,0,0,1-1,5.15,39.61,39.61,0,0,1-2.85,6.46,57.59,57.59,0,0,1-4.43,6.9,48.38,48.38,0,0,1-5.79,6.49,38.89,38.89,0,0,1-6.92,5.18,25.14,25.14,0,0,1-7.77,3,12.23,12.23,0,0,1-2,.33q-1,.08-1.79.08a10.94,10.94,0,0,1-4.87-.92,7.39,7.39,0,0,1-2.77-2.2,6,6,0,0,1-1.49-1.92,14.24,14.24,0,0,1-1-2.69,12.59,12.59,0,0,1-.56-3.69,18,18,0,0,1,1.44-6.87,33.33,33.33,0,0,1,3.82-6.79,46.84,46.84,0,0,1,5.46-6.28,58,58,0,0,1,6.38-5.36,50.08,50.08,0,0,1,6.59-4.05,28.15,28.15,0,0,1,6.05-2.33q.77-.15,1.59-.36a6.38,6.38,0,0,1,1.54-.21,1.94,1.94,0,0,1,1.9.87,1.43,1.43,0,0,1,.1.62,3.06,3.06,0,0,1-.1.79,4.54,4.54,0,0,0-.1,1.1.94.94,0,0,0,.05.31A1.37,1.37,0,0,1,150.74,133.2Z"/><path class="a" d="M175.43,172.26a15.18,15.18,0,0,1-3.15.92,17.13,17.13,0,0,1-2.85.26,9.67,9.67,0,0,1-4.56-1,9.52,9.52,0,0,1-3.08-2.49l-.67-.69a3.79,3.79,0,0,1-.62-.9,9.84,9.84,0,0,1-1-2.74,17.26,17.26,0,0,1-.41-4,23.33,23.33,0,0,1,.72-5.43,25.11,25.11,0,0,1,2.56-6.28,38.43,38.43,0,0,1,5-6.84,53.32,53.32,0,0,1,8-7.13,40.52,40.52,0,0,1,5.23-3.33,39.79,39.79,0,0,1,5.1-2.28,32.59,32.59,0,0,1,4.69-1.33,20.86,20.86,0,0,1,4-.44,7.16,7.16,0,0,1,3.9.87l.87.77a6.15,6.15,0,0,1,.67.67,4.52,4.52,0,0,1,1.49,1.95,5.75,5.75,0,0,1,.51,2.15,7.68,7.68,0,0,1-.72,3.18,6.69,6.69,0,0,1-1.69,2.41,9.1,9.1,0,0,1-1.74,1.33,3,3,0,0,1-1.38.46,1.25,1.25,0,0,0-.56-.13,5,5,0,0,1-.85-.13,2.21,2.21,0,0,1-.79-.36.88.88,0,0,1-.36-.77,1.92,1.92,0,0,0-.41-1.23,1.69,1.69,0,0,1-.41-1.08,1.84,1.84,0,0,1,.82-1.38q.82-.72,1.87-1.56a7.06,7.06,0,0,0,1.62-1.77,2.05,2.05,0,0,0-1.79-.67,15.74,15.74,0,0,0-5.69,1.56,49.37,49.37,0,0,0-8.25,4.74,44,44,0,0,0-5.2,4.33,37.32,37.32,0,0,0-4.77,5.59,32.73,32.73,0,0,0-3.49,6.38,17.41,17.41,0,0,0-1.36,6.61,4.67,4.67,0,0,0,2,2.31,6.56,6.56,0,0,0,3.36.82,7.16,7.16,0,0,0,1.31-.13l1.41-.28a33.81,33.81,0,0,0,5.31-1.95,49,49,0,0,0,5.92-3.2,55.81,55.81,0,0,0,5.69-4.1,31.66,31.66,0,0,0,4.61-4.59,1.51,1.51,0,0,1,1.23-.56,1.84,1.84,0,0,1,1.18.41,1.54,1.54,0,0,1,.51,1.28,4.79,4.79,0,0,1-.67,1.9,20.61,20.61,0,0,1-2,3,40.2,40.2,0,0,1-3.33,3.72,43.5,43.5,0,0,1-4.67,4,54.33,54.33,0,0,1-5.95,3.85A48.6,48.6,0,0,1,175.43,172.26Z"/><path class="a" d="M253.86,155.91a.42.42,0,0,1,.1.31,5,5,0,0,1-1.31,2.23,41.57,41.57,0,0,1-3.41,3.64q-2.1,2-4.74,4.2t-5.31,4a41.27,41.27,0,0,1-5.08,3,9.73,9.73,0,0,1-4.1,1.18,6.84,6.84,0,0,1-4.56-1.82,15.37,15.37,0,0,1-3.64-5,31.89,31.89,0,0,1-2.44-7.41,44,44,0,0,1-.9-9.07c0-.34,0-.68-.05-1a3,3,0,0,1,.05-1l-4.72,6.43L209,162.14q-2.31,3.15-4.21,5.84t-3,4.38a2.22,2.22,0,0,1-.9.9,2.11,2.11,0,0,1-.79.18,3.35,3.35,0,0,1-2.2-.87,14,14,0,0,1-1.74-1.74,1.09,1.09,0,0,1-.36-.59,3.11,3.11,0,0,1-.1-.79,4.25,4.25,0,0,1,.26-1.28,25.33,25.33,0,0,1,1.46-2.36q1.26-1.9,3.31-4.77t4.74-6.54l5.67-7.72q3-4,6.1-8.28l6.1-8.23q1.38-1.79,3.41-4.28t4.31-5.26q2.28-2.77,4.67-5.61l4.49-5.33q2.1-2.49,3.69-4.46t2.36-3a5.29,5.29,0,0,1,1.08-1.21,1.51,1.51,0,0,1,.87-.33.94.94,0,0,1,.56.1c.17.1.26.19.28.26a1.11,1.11,0,0,1,0,.26c0,.07.07.1.21.1l.44.15a.74.74,0,0,0,.28.05l.36-.1a3,3,0,0,1,.72-.1q.36,0,.72.72a2.92,2.92,0,0,0,.59.62,1.63,1.63,0,0,1,.49.77,1.53,1.53,0,0,0,.21.54.61.61,0,0,1,.1.38,2.88,2.88,0,0,1-.31.87,21,21,0,0,1-1.92,2.64q-1.51,1.87-3.77,4.56l-5.13,6.1q-2.87,3.41-6.05,7.31t-6.51,8.13q-3.33,4.23-6.46,8.54a26.78,26.78,0,0,0,4.1-1.67q2.36-1.15,4.92-2.61t5.1-3.1q2.54-1.64,4.61-3.05t3.46-2.46a10,10,0,0,0,1.64-1.41,5,5,0,0,1,.77-.56q.56-.36,1.23-.72a9.59,9.59,0,0,1,1.31-.59,3.19,3.19,0,0,1,1-.23q1.33,0,1.33,1.08a1.65,1.65,0,0,1,.54.28.35.35,0,0,1,.13.23,1.2,1.2,0,0,1-.1.41,2,2,0,0,0-.1.72,1.28,1.28,0,0,1-.13.69,2.68,2.68,0,0,1-.54.49,6.16,6.16,0,0,0-.9,1.08,9.49,9.49,0,0,0-.54,1,11.19,11.19,0,0,1-1.54,1.67q-1.44,1.41-3.82,3.33T240,141.35a65.16,65.16,0,0,1-6.33,3.95q-1.23.67-2.77,1.38-1.33.62-3.18,1.33t-4,1.38q.31,2.21.9,4.69a22.5,22.5,0,0,0,1.62,4.61,11.26,11.26,0,0,0,2.59,3.54,5.5,5.5,0,0,0,3.82,1.41,13.87,13.87,0,0,0,4.77-.9,39.41,39.41,0,0,0,4.77-2.1q2.31-1.2,4.28-2.38a35.65,35.65,0,0,1,3.21-1.74q1.28-.56,1.95-.79a3.47,3.47,0,0,1,1.08-.23,1.15,1.15,0,0,1,.64.15A2.24,2.24,0,0,0,253.86,155.91Z"/><path class="a" d="M285.24,129.66a.66.66,0,0,1,.23.41,2.91,2.91,0,0,1,.08.72,4.31,4.31,0,0,1-.08.82,1.24,1.24,0,0,1-.33.67q-2.67,2.67-5.62,6.13t-5.84,7.1q-2.9,3.64-5.54,7.2t-4.72,6.49q-2.08,2.92-3.41,4.92a21.05,21.05,0,0,0-1.54,2.51c-.1.24-.26.59-.49,1.05s-.47.95-.74,1.46-.54,1-.79,1.38a5.15,5.15,0,0,1-.59.82,8.53,8.53,0,0,1-1.38,1.1,2.12,2.12,0,0,1-1.08.33,1.13,1.13,0,0,1-.79-.31,1,1,0,0,0-.64-.31c-.07,0-.13.06-.18.18l-.18.41a2.3,2.3,0,0,1-.23.41.44.44,0,0,1-.38.18.42.42,0,0,1-.31-.1,2.77,2.77,0,0,1-.87-.85,3.71,3.71,0,0,1-.36-.77,3.22,3.22,0,0,1-.13-.56c0-.15,0-.23-.08-.23a.91.91,0,0,1-.69-.72,5.38,5.38,0,0,1-.18-1.49.5.5,0,0,0-.15-.36.89.89,0,0,1-.15-.62,6,6,0,0,1,.41-1.69,13.84,13.84,0,0,1,1.41-2.46q1.1-1.64,2.49-3.54t2.79-3.77q1.41-1.87,2.33-3.15.46-.62,1.69-2t2.92-3.15q1.69-1.79,3.72-3.87l4.08-4.18q2-2.1,4-4.05t3.54-3.49l2.62-2.54a7.08,7.08,0,0,1,1.28-1.1,1.82,1.82,0,0,1,.69-.08.94.94,0,0,0,.69-.23,1,1,0,0,0,.31-.05,1,1,0,0,1,.31-.05,2,2,0,0,1,.54.08,1.23,1.23,0,0,1,.54.33c.31.27.44.45.41.54S284.94,129.45,285.24,129.66Zm18.56-18.41a6.39,6.39,0,0,1-1.26,1.49q-.85.77-1.67,1.59l-.62.54q-.51.44-1.23,1t-1.46,1.1a12.69,12.69,0,0,1-1.21.79,6.58,6.58,0,0,1-1.18.28,9.3,9.3,0,0,1-1.54.13,7.87,7.87,0,0,1-1.38-.1,1.34,1.34,0,0,1-.82-.41,8.25,8.25,0,0,1-1-1.59,6.37,6.37,0,0,1-.41-2.61,3.23,3.23,0,0,0-.1-.59,4.66,4.66,0,0,1-.1-1.05,6.2,6.2,0,0,1,.13-1.2,4.12,4.12,0,0,1,.69-1.46,10,10,0,0,1,2.05-1.87,34.52,34.52,0,0,1,3.2-2.1,32.06,32.06,0,0,1,3.31-1.69,8.14,8.14,0,0,1,2.36-.74,6,6,0,0,1,.87.08,7.3,7.3,0,0,1,1,.23,4.56,4.56,0,0,1,.92.38,1.47,1.47,0,0,1,.56.49,7.14,7.14,0,0,1,.49,1.13,4.86,4.86,0,0,1,.23,1.59,4,4,0,0,1-.23,1.33,10.71,10.71,0,0,1-.54,1.28,11.38,11.38,0,0,1-.64,1.13A5.94,5.94,0,0,0,303.8,111.25Z"/><path class="a" d="M306.41,131.09a4.84,4.84,0,0,1-.18,1.31,3.15,3.15,0,0,1-.95,1.36q-.41.36-1.49,1.41t-2.36,2.38q-1.28,1.33-2.56,2.74t-2.1,2.49c-.21.27-.49.65-.87,1.13s-.85,1-1.44,1.69q2.05-1.59,4.49-3.44t5.05-3.69q2.61-1.85,5.31-3.56t5.2-3a37.17,37.17,0,0,1,4.77-2.1,12.35,12.35,0,0,1,4.05-.79,3.12,3.12,0,0,1,2.31.87,1.57,1.57,0,0,1,1.36.69,4.78,4.78,0,0,1,.72,1.62A9.89,9.89,0,0,1,328,134q0,.92.05,1.38a8.84,8.84,0,0,1-1.18,4.15,34.06,34.06,0,0,1-3.05,4.64q-1.87,2.44-4.18,5.1T315,154.83q-2.36,2.92-4.36,5.51T307.18,165q-1.49,2.05-2.46,3.54t-1.33,2.15a5.3,5.3,0,0,1-1,1.51,1.35,1.35,0,0,1-.9.38h-.21a.3.3,0,0,1-.21-.1.91.91,0,0,0-.67.21c-.14.14-.24.21-.31.21s-.24-.17-.31-.51-.14-.32-.21-.33l-.26-.05a.83.83,0,0,1-.33-.15,1.91,1.91,0,0,1-.44-.69,9.87,9.87,0,0,1-.59-1.33,5.05,5.05,0,0,1-.28-1.74A7.29,7.29,0,0,1,298,166a10.26,10.26,0,0,1,1.26-2.56,104,104,0,0,1,6.95-9.82q3.56-4.43,6.64-7.87t5.38-5.87a27.8,27.8,0,0,0,3.18-3.82,2.26,2.26,0,0,0-1.23-.36,9.16,9.16,0,0,0-2.64.51,29.72,29.72,0,0,0-4.08,1.74q-2.46,1.23-5.9,3.31t-8.1,5.25Q298,147.6,296,149.32t-4.18,3.74q-2.18,2-4.36,4.18t-4.13,4.15q-1.95,2-3.49,3.64t-2.36,2.61q-.87,1.13-1.77,2.49t-1.46,2.13a6.73,6.73,0,0,1-.49.77.63.63,0,0,1-.49.31,4,4,0,0,1-1.13-1.05,1.45,1.45,0,0,1-.21-.64v-.46s0-.08-.1-.15a.82.82,0,0,1-.36-.72,1,1,0,0,0-.31-.77.58.58,0,0,1-.18-.31,1.82,1.82,0,0,1,0-.31v-1a2,2,0,0,1-.21-.92,2.64,2.64,0,0,1,.31-1.18,25.52,25.52,0,0,1,1.49-2.38q1.13-1.66,2.74-3.87t3.54-4.74q1.92-2.54,3.82-5t3.59-4.54q1.69-2.1,2.87-3.44t2.64-2.82q1.46-1.54,3-3.08t3.08-3q1.51-1.46,2.74-2.61t2.08-1.87q.85-.72,1.05-.87a.57.57,0,0,0,.18-.15s.06-.05.13-.05a.93.93,0,0,1,.26.1.53.53,0,0,0,.15.1.89.89,0,0,1,.44.08.72.72,0,0,1,.21.18,1.89,1.89,0,0,1,.15.26.92.92,0,0,0,.28.31c.21.21.39.28.56.23s.26,0,.26.18v.1a.9.9,0,0,1-.1.26.52.52,0,0,0-.1.28v.23a.89.89,0,0,0,.15.59A1.24,1.24,0,0,1,306.41,131.09Z"/><path class="a" d="M357.42,103.1a42.32,42.32,0,0,1-2.79,4.72,50.86,50.86,0,0,1-3.51,4.51,37.69,37.69,0,0,1-3.18,3.2A17.77,17.77,0,0,1,344.4,118a2.37,2.37,0,0,1-1.1.46,8.22,8.22,0,0,1-1.31.1,5.41,5.41,0,0,1-1.82-.28q-.8-.28-.79-.69a1.91,1.91,0,0,1,.05-.46q0-.2.46-.46a15.83,15.83,0,0,0,2.54-1.74,18.46,18.46,0,0,0,2.1-2.08,22,22,0,0,0,1.69-2.23,21.21,21.21,0,0,0,1.26-2.15,3.16,3.16,0,0,1-1.38-2.2,1.85,1.85,0,0,1,.13-.72l.28-.67a10,10,0,0,1,1.1-1.56q.74-.9,1.61-1.79A19.24,19.24,0,0,1,351,99.87a6.81,6.81,0,0,1,1.51-1,4.73,4.73,0,0,1,1.51-.46,10.33,10.33,0,0,1,1.21-.1,4.34,4.34,0,0,1,2.36.49,1.6,1.6,0,0,1,.72,1.41,3.79,3.79,0,0,1-.23,1.23Q357.83,102.13,357.42,103.1Z"/><path class="b" d="M28.39,97.64s-1.46,14-9.49,15.39S8.52,101.69,8.52,101.69s.76,20.4-8.52,26.95c0,0,9.64,1.49,7.66,12.5,0,0,3.87-9.37,10.41-9.22s8,12.14,8,12.14S27.6,130,34.6,125.53s13.67,2.39,13.67,2.39-7.61-7.48-3.29-14.84a22.15,22.15,0,0,1-5.3,1.7c-7.44,1.34-29.76,10.58-30,10.18-.51-.79,38.94-16,36.71-15.85S36.34,111.36,28.39,97.64Z"/></svg>